<svg width="129" height="332" viewBox="0 0 129 332" fill="none" xmlns="http://www.w3.org/2000/svg">
<path d="M124.687 264.896C99.6858 257.446 79.6519 242.029 64.5853 218.644C49.5186 195.26 47.6302 171.237 58.9199 146.575C70.2096 121.914 83.2614 95.7052 98.0754 67.9498C112.889 40.1943 137.425 25.9141 171.681 25.1092C205.938 24.3043 228.543 39.5916 239.498 70.9711C250.452 102.351 264.279 130.936 280.978 156.727C297.677 182.518 296.828 208.484 278.43 234.625C260.032 260.765 236.059 274.208 206.511 274.953C176.963 275.698 149.688 272.346 124.687 264.896Z" fill="url(#paint0_linear)"/>
<defs>
<linearGradient id="paint0_linear" x1="298.31" y1="29.0824" x2="56.7572" y2="21.1813" gradientUnits="userSpaceOnUse">
<stop stop-color="#FF5F6D"/>
<stop offset="1" stop-color="#FFC371"/>
</linearGradient>
</defs>
</svg>
