<svg width="491" height="470" viewBox="0 0 491 470" fill="none" xmlns="http://www.w3.org/2000/svg">
<path opacity="0.18" d="M2.60544 339.538C5.28123 358.782 21.6361 448.269 81.3787 467.309C126.542 481.717 253.43 432.385 325.701 457.227C471.169 507.201 497.815 373.03 489.687 336.791C484.023 311.526 477.033 286.188 476.846 259.812C476.658 232.224 484.936 205.089 485.836 177.296C488.124 106.966 445.824 37.9222 388.145 17.7424C363.45 9.12104 343.256 0.309729 317.486 0.0613172C265.183 -0.464731 141.059 0.0613274 79.9158 104C68.9876 122.572 53.1204 136.469 40.9293 153.945C24.6745 177.325 13.8463 205.571 7.30683 234.781C-0.451994 268.943 -2.05296 304.615 2.60544 339.538Z" fill="#FF7E6F"/>
<path d="M311 362H216L232.808 307H296.823L311 362Z" fill="#89989B"/>
<path d="M312 365H217L233.808 310H297.823L312 365Z" fill="url(#paint0_linear)"/>
<path d="M390.899 105H144.101C134.656 105 127 113.969 127 125.032V307.968C127 319.031 134.656 328 144.101 328H390.899C400.344 328 408 319.031 408 307.968V125.032C408 113.969 400.344 105 390.899 105Z" fill="#89989B"/>
<path d="M408 124.964V285H127V124.964C127 119.669 128.801 114.591 132.006 110.847C135.212 107.103 139.559 105 144.092 105H390.908C395.441 105 399.788 107.103 402.994 110.847C406.199 114.591 408 119.669 408 124.964Z" fill="#473F47"/>
<path d="M404 129.157V280H131V129.157C131.026 124.048 132.792 119.16 135.908 115.568C139.024 111.976 143.236 109.973 147.618 110H387.382C391.764 109.973 395.976 111.976 399.092 115.568C402.208 119.16 403.974 124.048 404 129.157Z" fill="white"/>
<path opacity="0.18" d="M404 129.157V280H131V129.157C131.026 124.048 132.792 119.16 135.908 115.568C139.024 111.976 143.236 109.973 147.618 110H387.382C391.764 109.973 395.976 111.976 399.092 115.568C402.208 119.16 403.974 124.048 404 129.157Z" fill="#68E1FD"/>
<path d="M258 70H148V160H258V70Z" fill="#FF646E"/>
<path d="M360.759 121.614C360.596 118.889 360.759 116.092 360.507 113.382C360.119 109.474 359.019 105.705 357.282 102.323C355.545 98.9411 353.208 96.0219 350.426 93.7573C344.792 89.2462 337.923 87.2815 331.12 88.2355C320.094 89.6924 310.831 98.434 305.526 109.463C299.49 122.007 305.135 132.278 310.012 143.657C313.667 152.166 311.512 162.787 306.773 170.552C303.056 176.627 297.562 182.455 298.028 189.885C298.318 194.402 300.813 198.263 303.22 201.832C304.833 204.222 306.635 206.757 309.18 207.441C310.464 207.711 311.778 207.711 313.062 207.441C315.937 206.973 318.786 206.306 321.593 205.445C324.315 204.6 327.113 203.551 329.91 203.988C334.649 204.688 338.152 209.306 340.886 213.808C343.621 218.31 346.318 223.322 350.665 225.566C353.967 227.285 357.748 227.124 361.352 226.775C371.874 225.77 383.027 222.943 390.26 214.056C391.858 212.014 393.328 209.842 394.658 207.558C395.472 206.359 396.13 205.029 396.611 203.61C397.872 199.37 395.855 194.868 393.587 191.153C391.319 187.438 388.546 183.868 388.219 179.41C387.916 175.913 389.126 172.519 389.479 169.051C390.248 162.437 388.017 155.72 384.438 150.461C380.732 145.345 376.29 141.008 371.307 137.64C367.527 134.901 363.494 132.06 361.73 127.441C361.11 125.581 360.782 123.607 360.759 121.614Z" fill="#FC682D"/>
<path d="M368.622 219.53C375.21 228.243 377.95 238.969 382.945 248.916C383.533 250.339 384.431 251.551 385.548 252.428C387.379 253.604 389.658 252.781 391.501 251.635C406.335 242.29 407.692 215.563 422.24 205.615C425.615 203.323 429.451 202.118 432.801 199.738C434.047 198.856 435.392 197.284 434.894 195.668C434.665 195.171 434.349 194.738 433.967 194.399C433.584 194.059 433.144 193.82 432.677 193.699C428.847 192.138 424.782 191.543 420.745 191.95C418.939 192.141 416.423 191.95 416.224 189.79C416.274 189.17 416.274 188.545 416.224 187.924C415.825 186.367 413.621 186.94 413.073 188.439C412.525 189.937 412.936 191.642 412.886 193.273C412.637 195.825 411.802 198.249 410.47 200.282C407.33 205.992 403.894 211.469 400.182 216.679C389.67 231.373 387.018 207.937 378.71 203.044C377.92 202.657 377.075 202.453 376.219 202.441C368.821 201.844 361.415 201.668 354 201.912C356.628 204.396 366.255 216.415 368.622 219.53Z" fill="#F4DBBD"/>
<path d="M347.472 165C347.472 165 369.152 176.451 370.431 179.45C371.711 182.448 370.431 268 370.431 268H294L298.391 177.847L320.748 167.117L347.472 165Z" fill="#4B90A0"/>
<path d="M370 180L388 206.705C384.378 219.176 370 235 370 235V180Z" fill="#4B90A0"/>
<path d="M370 204L381 220.228L370 235V204Z" fill="url(#paint1_linear)"/>
<path d="M346.422 153.121C345.674 157.677 346.828 161.144 346.993 165.322C347.222 171.516 341.488 181.193 339.204 186.851C338.468 188.678 337.593 190.666 335.982 191.493C334.842 191.967 333.617 192.112 332.417 191.914C330.628 191.966 328.857 191.502 327.266 190.564C325.186 189.114 324.285 186.212 323.562 183.514C322.382 179.162 319.388 172.271 320.111 167.788C320.34 166.337 321.481 164.887 321.798 163.32C322.099 161.294 322.197 159.235 322.09 157.183C322.001 146.274 346.422 153.121 346.422 153.121Z" fill="#F4DBBD"/>
<path d="M347 153C347 153 343.825 172.061 333.713 170.954C330.954 170.766 328.322 169.585 326.212 167.587C324.101 165.588 322.624 162.879 322 159.864L347 153Z" fill="#E0BE99"/>
<path d="M347.251 149.623C346.658 152.673 345.629 155.586 344.208 158.243C340.209 165.025 331.13 167.11 325.12 162.618C321.884 159.921 319.379 156.206 317.902 151.913C314.387 142.922 313.211 132.937 314.52 123.182C314.866 119.374 316.12 115.753 318.141 112.725C321.7 107.956 327.773 106.716 333.23 107.051C338.172 107.358 343.29 108.787 346.999 112.448C349 114.498 350.486 117.139 351.298 120.089C352.111 123.039 352.22 126.189 351.614 129.205C350.218 136.002 348.848 142.827 347.251 149.623Z" fill="#F4DBBD"/>
<path d="M233.235 176.169C232.425 175.254 231.421 174.607 230.327 174.295C229.22 174.13 228.107 174.033 226.992 174.002C224.697 173.694 222.29 172.274 220.221 173.474C219.525 173.947 218.951 174.631 218.561 175.453C218.17 176.276 217.977 177.206 218.002 178.146C218.065 180.026 218.526 181.857 219.344 183.477C222.804 191.166 227.894 193.729 233.875 197.844C237.022 200.012 239.216 205.167 241.397 208.755L249.308 221.555C252.543 226.783 255.828 232.085 260.153 236.112C260.857 236.826 261.663 237.386 262.536 237.767C264.124 238.212 265.794 238.016 267.275 237.211C273.544 234.384 279.123 229.024 284.539 224.396C287.046 222.229 289.642 220.002 292.162 217.82C293.253 216.868 295.284 215.653 295.986 214.218C296.372 213.303 296.598 212.307 296.65 211.289C297.603 202.648 296.287 193.846 296.475 185.132C288.225 196.145 278.696 207.788 267.638 214.891C267.309 215.149 266.93 215.305 266.535 215.345C266.134 215.307 265.747 215.156 265.407 214.906C256.239 209.2 248.167 201.365 241.686 191.884C239.292 187.985 237.194 183.849 235.417 179.523C234.85 178.274 234.114 177.141 233.235 176.169Z" fill="#F4DBBD"/>
<path d="M351.178 131.398C351.686 131.067 352.266 130.938 352.837 131.028C353.409 131.119 353.943 131.425 354.365 131.904C354.611 132.296 354.782 132.752 354.865 133.236C355.257 135.978 354.788 138.8 353.553 141.136C353.271 141.813 352.885 142.416 352.415 142.912C351.46 143.65 350.344 144.013 349.216 143.954C348.964 144.015 348.705 144.015 348.453 143.954C348.251 143.84 348.072 143.672 347.928 143.464C347.568 142.911 347.304 142.274 347.151 141.593C346.999 140.911 346.961 140.198 347.041 139.498C347.278 136.344 348.753 132.7 351.178 131.398Z" fill="#F4DBBD"/>
<path d="M314.176 143.589C314.682 143.927 315.262 144.062 315.834 143.974C316.405 143.886 316.94 143.579 317.362 143.098C317.608 142.705 317.779 142.249 317.862 141.764C318.26 139.018 317.791 136.19 316.55 133.853C316.266 133.173 315.88 132.565 315.413 132.059C314.46 131.317 313.343 130.953 312.215 131.016C311.958 130.977 311.698 131.009 311.453 131.108C311.248 131.217 311.068 131.386 310.928 131.599C310.568 132.152 310.304 132.79 310.151 133.473C309.999 134.155 309.961 134.869 310.041 135.57C310.278 138.652 311.765 142.301 314.176 143.589Z" fill="#F4DBBD"/>
<path d="M298 178L280 204.389C283.655 217 295.852 233 295.852 233L298 178Z" fill="#4B90A0"/>
<path d="M353.731 138.243C353.425 139.142 352.928 139.933 352.288 140.544C352.006 140.815 351.657 140.974 351.293 140.997C350.929 141.02 350.568 140.906 350.263 140.671C350.149 140.583 350.064 140.453 350.02 140.302C349.976 140.057 350.006 139.801 350.105 139.578L350.25 139.124C350.286 138.992 350.339 138.867 350.408 138.755C350.675 138.343 351.221 138.414 351.621 138.158C352.021 137.903 352.178 137.25 352.397 136.738C352.473 136.527 352.599 136.345 352.76 136.214C352.921 136.083 353.11 136.009 353.306 136C353.491 136.045 353.659 136.16 353.783 136.326C353.908 136.493 353.983 136.702 353.997 136.923C354.017 137.384 353.925 137.842 353.731 138.243Z" fill="#E0BE99"/>
<path d="M311.26 137.241C311.563 138.139 312.06 138.931 312.703 139.538C312.987 139.81 313.336 139.971 313.703 139.996C314.069 140.022 314.432 139.911 314.741 139.68C314.855 139.586 314.94 139.451 314.984 139.297C315.022 139.056 314.992 138.807 314.899 138.588L314.753 138.134C314.721 138.001 314.667 137.876 314.596 137.765C314.329 137.354 313.783 137.411 313.383 137.156C312.982 136.9 312.825 136.248 312.606 135.737C312.528 135.528 312.401 135.348 312.241 135.218C312.08 135.088 311.892 135.012 311.697 135C311.511 135.038 311.341 135.148 311.216 135.313C311.09 135.478 311.016 135.687 311.005 135.908C310.977 136.371 311.065 136.835 311.26 137.241Z" fill="#E0BE99"/>
<path d="M320.332 168L315.03 170.735L312 195.946L326 202C326 202 320.515 176.628 320.332 168Z" fill="url(#paint2_linear)"/>
<path d="M316.693 197L315 207.583L331 229L325.663 201.204L316.693 197Z" fill="url(#paint3_linear)"/>
<path d="M329.22 111.971C329.846 116.399 330.471 121.33 333.347 124.43C334.976 126.046 336.883 127.224 338.935 127.885C343.634 129.707 348.523 130.756 353.464 131C354.187 127.184 354.178 123.225 353.44 119.413C352.701 115.601 351.251 112.032 349.195 108.966C347.139 105.9 344.529 103.415 341.555 101.693C338.582 99.9699 335.32 99.0529 332.009 99.0086C323.394 98.7281 328.308 105.342 329.22 111.971Z" fill="#FC682D"/>
<path d="M404 263H131V280H404V263Z" fill="white"/>
<path d="M337.5 367.197C335.709 369.275 334.422 371.864 333.769 374.701C333.115 377.539 333.118 380.525 333.777 383.361C334.436 386.197 335.727 388.782 337.522 390.856C339.316 392.93 341.551 394.42 344 395.177V399H170.25C166.624 399 163.09 397.675 160.152 395.212C157.214 392.75 155.022 389.276 153.888 385.285C153.299 383.255 152.999 381.127 153 378.986C152.998 376.36 153.443 373.761 154.31 371.335C155.176 368.91 156.447 366.706 158.049 364.849C159.651 362.993 161.553 361.521 163.647 360.517C165.74 359.514 167.984 358.998 170.25 359H344V362.823C341.537 363.589 339.294 365.098 337.5 367.197Z" fill="#FF796E"/>
<path d="M344 395.179V399H170.353C166.729 399 163.197 397.676 160.261 395.215C157.324 392.754 155.134 389.283 154 385.295C160.596 386.641 202.359 394.355 225.608 379L334.506 385.729C335.372 388.031 336.676 390.075 338.32 391.712C339.964 393.348 341.906 394.533 344 395.179Z" fill="url(#paint4_linear)"/>
<path d="M337.494 366.982C335.701 369.095 334.413 371.725 333.759 374.609C333.105 377.493 333.108 380.528 333.767 383.41C334.427 386.293 335.719 388.92 337.516 391.028C339.312 393.136 341.548 394.65 344 395.419V395.993H239.876C237.944 396.06 236.019 395.67 234.217 394.846C232.415 394.022 230.771 392.781 229.384 391.196C227.997 389.612 226.894 387.716 226.141 385.621C225.388 383.526 225 381.275 225 379C225 376.725 225.388 374.474 226.141 372.379C226.894 370.284 227.997 368.388 229.384 366.804C230.771 365.219 232.415 363.978 234.217 363.154C236.019 362.33 237.944 361.94 239.876 362.007H344V362.567C341.538 363.336 339.293 364.86 337.494 366.982Z" fill="white"/>
<path d="M443.5 409.378C441.709 411.51 440.422 414.165 439.769 417.076C439.115 419.986 439.118 423.05 439.777 425.959C440.436 428.868 441.727 431.519 443.522 433.647C445.316 435.774 447.551 437.302 450 438.078V442H276.25C272.627 442.002 269.095 440.647 266.158 438.127C263.22 435.607 261.026 432.05 259.887 427.962C259.299 425.879 258.999 423.697 259 421.5C258.998 418.807 259.443 416.141 260.31 413.653C261.176 411.165 262.447 408.904 264.049 407C265.651 405.096 267.553 403.586 269.647 402.556C271.74 401.527 273.984 400.998 276.25 401H450V404.922C447.54 405.698 445.297 407.236 443.5 409.378Z" fill="#FF796E"/>
<path d="M450 437.983V442H275.439C271.799 442.003 268.251 440.614 265.299 438.032C262.348 435.451 260.144 431.807 259 427.62C265.631 429.035 307.613 437.146 330.984 421L440.456 428.076C441.33 430.49 442.642 432.634 444.295 434.349C445.947 436.065 447.897 437.306 450 437.983Z" fill="url(#paint5_linear)"/>
<path d="M443.494 409.012C441.701 411.124 440.413 413.754 439.759 416.638C439.105 419.522 439.108 422.558 439.767 425.44C440.427 428.322 441.719 430.949 443.516 433.057C445.312 435.165 447.548 436.679 450 437.448V437.993H345.876C343.944 438.06 342.019 437.67 340.217 436.846C338.415 436.022 336.771 434.781 335.384 433.196C333.997 431.612 332.894 429.716 332.141 427.621C331.388 425.526 331 423.275 331 421C331 418.725 331.388 416.474 332.141 414.379C332.894 412.284 333.997 410.388 335.384 408.804C336.771 407.219 338.415 405.978 340.217 405.154C342.019 404.33 343.944 403.94 345.876 404.007H450V404.567C447.535 405.345 445.29 406.879 443.494 409.012Z" fill="white"/>
<path d="M224.416 173.385L204 115L227 174L224.416 173.385Z" fill="white"/>
<path d="M408.739 292.003C407.013 292.933 405.435 294.214 404.073 295.787C403.393 296.574 402.858 297.522 402.502 298.57C402.146 299.618 401.976 300.743 402.003 301.875C402.187 304.618 403.828 306.876 405.555 308.666C407.526 310.749 409.927 312.92 410.086 316C411.495 314.739 412.781 313.272 414.238 312.084C416.786 310.001 419.786 308.886 422.591 307.346C425.396 305.806 428.176 303.635 429.511 300.305C430.232 298.2 430.646 295.963 430.736 293.69C431.023 291.26 431.076 288.8 430.895 286.356C430.703 283.896 429.802 281.594 428.347 279.843C426.134 277.811 423.525 276.488 420.766 276C419.214 276.096 417.717 276.723 416.453 277.807C415.19 278.891 414.213 280.387 413.638 282.117C413.062 283.95 413.332 286.033 412.768 287.867C412.058 290.008 410.331 291.035 408.739 292.003Z" fill="#FC682D"/>
<path d="M343.656 402.475C343.093 402.462 342.532 402.563 341.997 402.774C341.73 402.884 341.495 403.083 341.318 403.346C341.142 403.61 341.032 403.928 341 404.264C341.022 404.592 341.113 404.908 341.263 405.184C341.413 405.46 341.618 405.687 341.86 405.844C342.322 406.202 342.858 406.41 343.319 406.783C343.708 407.169 344.125 407.513 344.566 407.811C345.356 408.095 346.201 408.058 346.972 407.707C350.564 406.661 354.283 406.383 357.956 406.887C358.312 406.94 358.672 406.94 359.028 406.887C359.551 406.707 360.027 406.37 360.411 405.908C360.795 405.446 361.074 404.876 361.223 404.249C361.958 401.58 362.176 398.746 361.858 395.962C361.854 395.651 361.79 395.345 361.671 395.068C361.523 394.851 361.335 394.678 361.123 394.561C357.644 392.504 355.737 396.618 353.181 398.63C350.337 400.875 347.055 402.2 343.656 402.475Z" fill="#FFBBAB"/>
<path d="M427.985 341.823C427.985 341.823 428.861 357.126 417.189 361.743C405.516 366.36 384.599 362.593 384.599 362.593C384.599 362.593 376.179 381.487 367.572 390.443L362.068 396.82C360.908 397.148 359.689 397.026 358.594 396.47C357.499 395.915 356.589 394.957 356 393.741C356 393.741 372.264 355.762 374.453 352.919C376.937 349.418 380.256 346.866 383.986 345.59L407.28 337L427.985 341.823Z" fill="#473F47"/>
<path d="M350 292.135L362.641 323L386 322.811L385.81 320.482L364.324 320.206L352.43 291L350 292.135Z" fill="#473F47"/>
<path d="M411.674 272.025C411.249 272.865 410.362 273.357 410.075 274.269C409.787 275.181 410.399 276.542 410.737 277.657C411.224 279.206 411.074 280.943 411.536 282.507C411.617 282.845 411.782 283.147 412.011 283.375C412.225 283.545 412.468 283.659 412.723 283.708C413.722 283.942 414.744 284.01 415.759 283.911C415.958 283.866 416.164 283.896 416.347 283.998C416.496 284.15 416.589 284.362 416.609 284.592C417.193 287.542 417.15 290.612 416.484 293.539C416.272 294.509 416.034 295.681 416.647 296.434C416.869 296.667 417.14 296.827 417.434 296.897C419.358 297.433 421.182 295.783 422.506 294.002C423.666 292.454 424.664 290.753 425.48 288.935C425.735 288.43 425.908 287.876 425.992 287.299C426.028 286.553 425.939 285.805 425.73 285.098C425.178 282.664 424.843 280.17 424.73 277.657C424.593 274.443 424.793 271.099 423.718 268.116C423.413 267.091 422.824 266.211 422.044 265.612C421.111 265.097 420.071 264.901 419.045 265.047C417.034 265.134 414.81 265.452 413.436 267.175C413.048 267.667 412.211 270.983 411.674 272.025Z" fill="#FFBBAB"/>
<path d="M425.171 288.036C425.171 288.036 416.868 293.039 414.359 296.966C411.849 300.892 407.754 303.786 409.365 311.218C410.975 318.649 409.015 329.992 409.015 329.992C409.015 329.992 412.623 343.212 421.5 346.557C430.377 349.902 427.93 348.84 427.93 348.84C427.93 348.84 432.637 324.335 434.484 317.515C436.332 310.694 433.211 286.946 425.171 288.036Z" fill="#FFBC71"/>
<path d="M414.024 267.198C414.189 268.801 414.841 270.281 415.861 271.368C416.849 272.436 418.061 273.182 419.086 274.206C419.626 274.68 420.056 275.304 420.338 276.022C420.619 276.74 420.743 277.529 420.698 278.318C421.09 278.135 421.525 278.118 421.926 278.27C422.328 278.423 422.671 278.734 422.898 279.151C423.003 279.446 423.036 279.768 422.994 280.083C422.952 280.398 422.837 280.694 422.66 280.937C422.479 281.173 422.254 281.359 422.003 281.481C421.753 281.602 421.481 281.656 421.21 281.639C422.261 282.141 423.161 282.997 423.797 284.097C424.51 285.326 424.86 286.789 425.51 288.077C426.312 289.377 427.317 290.489 428.472 291.354C428.989 291.763 429.418 292.31 429.721 292.949C429.959 293.944 430.247 294.921 430.584 295.875C431.322 297.094 432.115 298.266 432.958 299.387C434.1 301.343 434.753 303.633 434.845 306C434.789 305.299 434.789 304.594 434.845 303.893C435.054 303.483 435.254 303.059 435.445 302.62C435.765 301.854 436.012 301.05 436.183 300.221C436.422 298.322 436.469 296.397 436.32 294.485C436.32 290.388 439.62 282.678 436.97 279.166C435.915 278.131 434.791 277.197 433.608 276.372C431.271 274.104 430.946 270.109 429.471 267.007C428.817 265.642 427.938 264.442 426.885 263.478C425.831 262.513 424.625 261.803 423.335 261.389C419.886 260.233 413.562 261.506 414.024 267.198Z" fill="#FC682D"/>
<path d="M422.272 300.713C422.272 300.713 417.057 317.266 416.063 318.476C415.07 319.685 426.109 327 426.109 327C426.109 327 433.324 310.898 432.989 303.933C432.653 296.968 426.333 294.141 422.272 300.713Z" fill="#FFBC71"/>
<path d="M426 324.646C426 324.646 425.609 330.103 419.949 329.999L394.797 329.581C393.082 328.537 390.737 328.373 389.464 326.599C388.846 325.794 388.531 324.721 387.951 323.886C387.15 322.841 386.067 322.156 384.888 321.947C383.719 321.749 382.534 321.714 381.358 321.843C381.127 321.529 381 321.126 381 320.71C381 320.294 381.127 319.891 381.358 319.577C381.851 318.973 382.489 318.562 383.186 318.399C386.081 317.542 389.146 318.078 391.708 319.89C392.45 320.513 393.26 321.015 394.116 321.381C394.746 321.533 395.392 321.573 396.032 321.5C403.282 321.098 410.443 319.279 417.692 318.891C419.391 318.69 421.108 318.903 422.735 319.517C423.585 320.003 424.325 320.721 424.893 321.613C425.461 322.506 425.841 323.545 426 324.646Z" fill="#FFBBAB"/>
<path d="M346 327H342V402H346V327Z" fill="white"/>
<path d="M386 327H382V402H386V327Z" fill="white"/>
<path d="M388 323H338V330H388V323Z" fill="#68E1FD"/>
<path d="M388 323H338V330H388V323Z" fill="url(#paint6_linear)"/>
<path d="M428.625 361H396.375C395.616 361 395 361.736 395 362.644V369.356C395 370.264 395.616 371 396.375 371H428.625C429.384 371 430 370.264 430 369.356V362.644C430 361.736 429.384 361 428.625 361Z" fill="#473F47"/>
<path d="M402 371H395.996L393 403H399.004L402 371Z" fill="#473F47"/>
<path d="M432 403L428.416 371H423L427.5 403H432Z" fill="#473F47"/>
<path d="M441 308H435.784L424 361H429.216L441 308Z" fill="#473F47"/>
<path d="M130.375 371H162.625C163.384 371 164 370.264 164 369.356V362.644C164 361.736 163.384 361 162.625 361H130.375C129.616 361 129 361.736 129 362.644V369.356C129 370.264 129.616 371 130.375 371Z" fill="#473F47"/>
<path d="M157 371H163.004L166 403H159.996L157 371Z" fill="#473F47"/>
<path d="M127 403L130.982 371H137L132 403H127Z" fill="#473F47"/>
<path d="M118 308H123.522L136 361H130.478L118 308Z" fill="#473F47"/>
<path d="M278.5 409.378C276.709 411.51 275.422 414.165 274.769 417.076C274.115 419.986 274.118 423.05 274.777 425.959C275.436 428.868 276.727 431.519 278.522 433.647C280.316 435.774 282.551 437.302 285 438.078V442H111.25C107.627 442.002 104.095 440.647 101.158 438.127C98.2201 435.607 96.026 432.05 94.8875 427.962C94.2986 425.879 93.9989 423.697 94 421.5C93.9984 418.807 94.4434 416.141 95.3097 413.653C96.1761 411.165 97.4466 408.904 99.0488 407C100.651 405.096 102.553 403.586 104.647 402.557C106.74 401.527 108.984 400.998 111.25 401H285V404.922C282.54 405.698 280.297 407.236 278.5 409.378Z" fill="#FF796E"/>
<path d="M285 437.983V442H110.439C106.799 442.003 103.251 440.614 100.299 438.032C97.3481 435.451 95.1438 431.807 94 427.62C100.631 429.035 142.613 437.146 165.984 421L275.456 428.076C276.33 430.49 277.642 432.634 279.295 434.349C280.947 436.064 282.897 437.306 285 437.983Z" fill="url(#paint7_linear)"/>
<path d="M278.494 409.026C276.701 411.139 275.413 413.769 274.759 416.653C274.105 419.537 274.108 422.572 274.767 425.455C275.427 428.337 276.719 430.964 278.516 433.072C280.312 435.18 282.548 436.694 285 437.463V437.993H180.876C178.944 438.06 177.019 437.67 175.217 436.846C173.415 436.022 171.771 434.781 170.384 433.196C168.997 431.612 167.894 429.716 167.141 427.621C166.388 425.526 166 423.275 166 421C166 418.725 166.388 416.474 167.141 414.379C167.894 412.284 168.997 410.388 170.384 408.804C171.771 407.219 173.415 405.978 175.217 405.154C177.019 404.33 178.944 403.94 180.876 404.007H285V404.567C282.534 405.349 280.288 406.888 278.494 409.026Z" fill="white"/>
<path d="M148 266L159 271.683L148 277V266Z" fill="#68E1FD"/>
<path d="M394 269H164V273H394V269Z" fill="#949A9B"/>
<path d="M133.015 342.781C133.015 342.781 132.132 357.997 143.901 362.588C152.302 365.867 161.939 365.153 170.643 364.264C172.043 364.118 174.554 363.302 175.79 364.38C177.53 365.838 176.66 369.904 176.61 372.105C176.496 376.885 176.395 381.651 176.282 386.432C176.282 388.633 176.282 390.892 176.13 393.078C175.979 395.264 175.512 397.829 175.373 400.249C175.356 400.35 175.357 400.454 175.376 400.554C175.396 400.655 175.433 400.749 175.487 400.832C175.559 400.898 175.642 400.946 175.731 400.973C175.82 401.001 175.913 401.007 176.004 400.992L191.419 400.22C191.585 400.241 191.752 400.189 191.885 400.074C192.112 399.826 191.961 399.389 191.785 399.097C190.195 396.73 187.981 395.026 185.477 394.244C184.887 394.073 184.325 393.793 183.812 393.413C182.21 391.956 183.535 388.822 183.901 387.059L185.49 379.392L188.618 364.322C189.552 359.862 189.779 356.466 186.802 353.362C184.123 350.294 180.881 347.963 177.316 346.541L153.841 338L133.015 342.781Z" fill="#473F47"/>
<path d="M225 292.135L212.359 323L189 322.811L189.19 320.482L210.663 320.206L222.558 291L225 292.135Z" fill="#473F47"/>
<path d="M164.314 272.025C164.751 272.865 165.638 273.357 165.925 274.269C166.213 275.181 165.601 276.542 165.251 277.657C164.776 279.206 164.926 280.943 164.464 282.507C164.383 282.844 164.218 283.147 163.989 283.375C163.774 283.542 163.531 283.656 163.277 283.708C162.278 283.942 161.256 284.01 160.241 283.911C160.042 283.866 159.836 283.896 159.653 283.998C159.504 284.15 159.411 284.362 159.391 284.591C158.803 287.54 158.842 290.611 159.503 293.539C159.728 294.509 159.966 295.681 159.353 296.434C159.131 296.667 158.86 296.827 158.566 296.897C156.642 297.433 154.818 295.783 153.494 294.002C152.334 292.454 151.336 290.753 150.52 288.935C150.265 288.43 150.092 287.876 150.008 287.299C149.972 286.553 150.061 285.805 150.27 285.098C150.817 282.663 151.148 280.17 151.257 277.657C151.407 274.443 151.257 271.098 152.269 268.116C152.58 267.09 153.172 266.21 153.956 265.611C154.885 265.097 155.921 264.901 156.942 265.047C158.966 265.134 161.178 265.452 162.552 267.175C162.952 267.667 163.789 270.983 164.314 272.025Z" fill="#FFBBAB"/>
<path d="M149.536 288.074H149.713C153.446 289.131 158.879 293.009 160.098 297.322C161.634 302.734 162.637 310.014 161.532 315.614C160.783 319.42 158.993 322.85 157.99 326.584C157.14 329.666 156.784 332.937 155.667 335.904C154.273 339.353 151.925 342.186 148.983 343.968C146.041 345.751 142.668 346.385 139.38 345.773C137.635 345.436 135.99 344.61 134.594 343.371C133.327 342.027 132.348 340.368 131.734 338.524C131.12 336.679 130.886 334.698 131.052 332.734C131.425 328.808 132.329 324.971 133.73 321.359L139.545 304.066C140.954 299.927 144.369 286.902 149.536 288.074Z" fill="#FFBC71"/>
<path d="M146.862 330.779C147.187 331.402 147.401 332.094 147.493 332.813C147.51 333.343 147.455 333.873 147.329 334.383C146.735 337.206 146.484 340.112 146.584 343.015C146.545 343.539 146.686 344.061 146.976 344.468C147.303 344.738 147.697 344.88 148.099 344.875C149.543 345.146 151.022 344.975 152.391 344.381C153.864 343.316 154.974 341.699 155.534 339.803C157.383 334.53 158.791 329.065 159.737 323.483C159.976 322.59 160.053 321.651 159.965 320.722C159.809 320.033 159.538 319.385 159.165 318.817C158.793 318.248 158.327 317.77 157.793 317.409C156.784 316.61 155.635 316.028 154.663 315.156C152.744 313.47 151.331 310.404 148.718 310.012C147.815 309.936 146.917 310.226 146.179 310.831C145.442 311.436 144.911 312.318 144.678 313.325C142.962 318.542 144.805 325.997 146.862 330.779Z" fill="url(#paint8_linear)"/>
<path d="M152.724 300.713C152.724 300.713 157.943 317.266 158.937 318.476C159.931 319.685 148.896 327 148.896 327C148.896 327 141.664 310.898 142.012 303.933C142.36 296.968 148.648 294.141 152.724 300.713Z" fill="#FFBE71"/>
<path d="M149 324.646C149 324.646 149.39 330.103 155.033 329.999L180.221 329.581C181.921 328.537 184.264 328.373 185.549 326.599C186.153 325.794 186.468 324.721 187.06 323.886C187.861 322.841 188.942 322.156 190.12 321.947C191.288 321.749 192.472 321.714 193.647 321.843C193.875 321.527 194 321.125 194 320.71C194 320.295 193.875 319.893 193.647 319.577C193.152 318.976 192.516 318.565 191.821 318.399C188.928 317.542 185.866 318.078 183.307 319.89C182.566 320.513 181.756 321.015 180.901 321.381C180.272 321.533 179.627 321.573 178.987 321.5C171.745 321.098 164.592 319.279 157.35 318.891C155.652 318.694 153.938 318.907 152.312 319.517C151.452 319.993 150.702 320.708 150.125 321.601C149.548 322.494 149.162 323.539 149 324.646Z" fill="#FFBBAB"/>
<path d="M186 327H182V402H186V327Z" fill="white"/>
<path d="M226 327H222V402H226V327Z" fill="white"/>
<path d="M227 323H178V330H227V323Z" fill="#68E1FD"/>
<path d="M227 323H178V330H227V323Z" fill="url(#paint9_linear)"/>
<path d="M162.412 258.861C161.799 257.762 160.973 256.846 160 256.187C159.027 255.529 157.936 255.145 156.813 255.069C156.061 254.938 155.293 254.994 154.56 255.235C153.828 255.476 153.148 255.896 152.566 256.467C152.107 257.002 151.762 257.671 151.29 258.192C149.925 259.679 147.821 259.501 146.188 260.408C144.713 261.302 143.58 262.809 143.012 264.631C142.458 266.443 142.148 268.345 142.094 270.268C141.912 272.026 141.994 273.807 142.336 275.532C142.663 276.807 143.238 277.977 144.017 278.95C144.796 279.922 145.758 280.672 146.826 281.139C147.333 281.279 147.803 281.566 148.191 281.972C148.497 282.373 148.599 282.953 148.892 283.37C149.619 284.411 151.073 284.024 151.979 283.206C152.765 282.239 153.662 281.403 154.645 280.723L152.094 276.692C151.766 276.29 151.579 275.76 151.571 275.205C151.648 274.884 151.816 274.601 152.047 274.405C152.279 274.208 152.56 274.107 152.846 274.12C153.421 274.18 153.962 274.456 154.39 274.908C154.76 275.265 155.321 275.666 155.665 275.25C155.77 275.12 155.833 274.952 155.844 274.774C156.124 272.781 154.568 270.803 155.027 268.825C155.064 268.645 155.149 268.484 155.27 268.364C155.45 268.253 155.658 268.221 155.856 268.275C156.873 268.468 157.907 268.498 158.93 268.364C162.157 267.665 164.019 262.088 162.412 258.861Z" fill="#473F47"/>
<path d="M157.842 300.398C157.842 301.116 157.842 302.024 157.241 302.2C157.005 302.25 156.762 302.209 156.545 302.083C155.643 301.688 154.787 301.146 154 300.471C154.203 306.533 154.87 312.557 155.992 318.462C156.039 318.798 156.143 319.118 156.298 319.399C156.468 319.602 156.67 319.758 156.891 319.859C157.112 319.96 157.347 320.003 157.583 319.985C158.743 320.06 159.904 319.851 161 319.37C158.077 313.334 157.948 305.672 159.598 298.948C159.944 297.977 160.035 296.895 159.857 295.857C159.533 295.137 159.09 294.511 158.558 294.019C158.026 293.527 157.417 293.179 156.769 293C156.416 295.212 157.7 298.142 157.842 300.398Z" fill="url(#paint10_linear)"/>
<defs>
<linearGradient id="paint0_linear" x1="260.155" y1="297.053" x2="271.177" y2="425.095" gradientUnits="userSpaceOnUse">
<stop offset="0.01"/>
<stop offset="0.08" stop-opacity="0.69"/>
<stop offset="0.21" stop-opacity="0.32"/>
<stop offset="1" stop-opacity="0"/>
</linearGradient>
<linearGradient id="paint1_linear" x1="-24217" y1="7046.76" x2="-23786.8" y2="6995.55" gradientUnits="userSpaceOnUse">
<stop offset="0.01"/>
<stop offset="0.08" stop-opacity="0.69"/>
<stop offset="0.21" stop-opacity="0.32"/>
<stop offset="1" stop-opacity="0"/>
</linearGradient>
<linearGradient id="paint2_linear" x1="-7905.71" y1="7241.7" x2="-7172.65" y2="6925.06" gradientUnits="userSpaceOnUse">
<stop offset="0.01"/>
<stop offset="0.08" stop-opacity="0.69"/>
<stop offset="0.21" stop-opacity="0.32"/>
<stop offset="1" stop-opacity="0"/>
</linearGradient>
<linearGradient id="paint3_linear" x1="-9318.71" y1="7164.24" x2="-8762.62" y2="6970.9" gradientUnits="userSpaceOnUse">
<stop offset="0.01"/>
<stop offset="0.08" stop-opacity="0.69"/>
<stop offset="0.21" stop-opacity="0.32"/>
<stop offset="1" stop-opacity="0"/>
</linearGradient>
<linearGradient id="paint4_linear" x1="48108.1" y1="5152.6" x2="48183.8" y2="11199.5" gradientUnits="userSpaceOnUse">
<stop offset="0.01"/>
<stop offset="0.08" stop-opacity="0.69"/>
<stop offset="0.21" stop-opacity="0.32"/>
<stop offset="1" stop-opacity="0"/>
</linearGradient>
<linearGradient id="paint5_linear" x1="64616.4" y1="6038.08" x2="64699.5" y2="12387.2" gradientUnits="userSpaceOnUse">
<stop offset="0.01"/>
<stop offset="0.08" stop-opacity="0.69"/>
<stop offset="0.21" stop-opacity="0.32"/>
<stop offset="1" stop-opacity="0"/>
</linearGradient>
<linearGradient id="paint6_linear" x1="14840.5" y1="1710.54" x2="14841" y2="2154.02" gradientUnits="userSpaceOnUse">
<stop offset="0.01"/>
<stop offset="0.08" stop-opacity="0.69"/>
<stop offset="0.21" stop-opacity="0.32"/>
<stop offset="1" stop-opacity="0"/>
</linearGradient>
<linearGradient id="paint7_linear" x1="39250.9" y1="6038.08" x2="39334" y2="12387.2" gradientUnits="userSpaceOnUse">
<stop offset="0.01"/>
<stop offset="0.08" stop-opacity="0.69"/>
<stop offset="0.21" stop-opacity="0.32"/>
<stop offset="1" stop-opacity="0"/>
</linearGradient>
<linearGradient id="paint8_linear" x1="2830.24" y1="10709.9" x2="3665.74" y2="10665.2" gradientUnits="userSpaceOnUse">
<stop offset="0.01"/>
<stop offset="0.08" stop-opacity="0.69"/>
<stop offset="0.21" stop-opacity="0.32"/>
<stop offset="1" stop-opacity="0"/>
</linearGradient>
<linearGradient id="paint9_linear" x1="8117.96" y1="1822.26" x2="8118.24" y2="2010.51" gradientUnits="userSpaceOnUse">
<stop offset="0.01"/>
<stop offset="0.08" stop-opacity="0.69"/>
<stop offset="0.21" stop-opacity="0.32"/>
<stop offset="1" stop-opacity="0"/>
</linearGradient>
<linearGradient id="paint10_linear" x1="1686.23" y1="8102.75" x2="1121.64" y2="8058.4" gradientUnits="userSpaceOnUse">
<stop offset="0.01"/>
<stop offset="0.08" stop-opacity="0.69"/>
<stop offset="0.21" stop-opacity="0.32"/>
<stop offset="1" stop-opacity="0"/>
</linearGradient>
</defs>
</svg>
